<svg xmlns="http://www.w3.org/2000/svg" viewBox="0 0 187.19 187.19"><defs><style>.cls-1{fill:#fff;stroke:#41bb93;}.cls-1,.cls-2{stroke-miterlimit:10;}.cls-2{fill:#006838;stroke:#fff;}</style></defs><title>fabiconAsset 3</title><g id="Layer_2" data-name="Layer 2"><g id="Layer_3" data-name="Layer 3"><circle class="cls-1" cx="93.6" cy="93.6" r="88.09"/><path class="cls-2" d="M94.2,41.73V97.3s15.08,1.2,23.36-8.56,7.69-32.23-1.48-41.4S94.2,41.73,94.2,41.73Z"/><path class="cls-2" d="M93.6.5a93.1,93.1,0,1,0,93.09,93.1A93.1,93.1,0,0,0,93.6.5ZM86.51,34C97.16,32,49.85,42.61,64,72.48c9.31,26,27.5,31.64,33.41,52.63,2.59,12.71.3,17.3-3.25,24.25C94.2,139,102.76,121,73.35,98.5,49,73.36,55.76,44,77.2,37S86.51,34,86.51,34ZM73.35,82.24c-2.88-4.44-7.79-14.75-7.57-24.95s11.42-15,11.42-15-7.32,6.43-8.54,15C67.11,63.27,71.49,74.14,73.35,82.24Zm-1.86,23.65c-3.65-2.66-6.71-2-6.71-2V97.3S70,100.27,71.49,105.89ZM60.49,84C42.16,55,62.27,43.8,62.27,43.8,53.55,57.25,52.78,60.21,60.49,84ZM47.26,34H69.88a21.41,21.41,0,0,0-9.53,5.85c-1.56-2.44-13.09-2.66-13.09-2.66ZM50,109.87a5.18,5.18,0,0,1,1.43-1.37c6.69-4.33,10-1.11,16.7,2.45,10,5.27,15.87,20,15.87,20-8.28-11.79-18.55-13.08-24.65-8.42S40.12,123.83,50,109.87Zm-2.74,52.5v-5s5.92,0,8.87,3.84C48.37,160.3,47.26,162.37,47.26,162.37Zm7.65-10.5c-12.66-14.06,2.67-24.64,3.67-25.31h0l0,0h0a11.09,11.09,0,1,1-4.88,10.27h0c-4.17,9.76,15.92,29,31,10.93,13.08-24.1-8.87-37.4-8.87-37.4,27.5,13.34,15.52,36.11,13,39.65S69.78,168.38,54.91,151.87Zm56.89,9.26H83.41c4.43-1.78,10.79-9.26,10.79-9.26,5,7.32,17.6,5.47,17.6,5.47ZM153.63,69.2C151,110,98.34,103.52,98.34,103.52S90.52,93.46,84.1,92.36a5.91,5.91,0,0,1-1.47-.49c-4-1.91-4.1-3.43-4.1-3.43l2.66-3.25s-18-29,.59-41.1c1.93-1.18,1.63-2.36,1.63-2.36S88,41.13,89.32,40s2.52-5.62,2.52-5.62S156.3,28.37,153.63,69.2Z"/></g></g></svg>