<svg xmlns="http://www.w3.org/2000/svg" xmlns:xlink="http://www.w3.org/1999/xlink" viewBox="0 0 13.73 13.69"><defs><style>.cls-1{fill:url(#radial-gradient);}.cls-2{fill:#fff;}</style><radialGradient id="radial-gradient" cx="-95.91" cy="-265.39" r="20.79" gradientTransform="matrix(0.64, -0.76, -0.51, -0.42, -69.63, -169.23)" gradientUnits="userSpaceOnUse"><stop offset="0.07" stop-color="#ebcc7c"/><stop offset="0.18" stop-color="#ebab59"/><stop offset="0.31" stop-color="#ef802c"/><stop offset="0.36" stop-color="#ef6d3a"/><stop offset="0.46" stop-color="#f04d51"/><stop offset="0.52" stop-color="#ef4059"/><stop offset="0.69" stop-color="#d53f96"/><stop offset="0.72" stop-color="#c54197"/><stop offset="0.79" stop-color="#9e499c"/><stop offset="0.88" stop-color="#6d54a3"/><stop offset="0.98" stop-color="#465eab"/></radialGradient></defs><title>icon_instagramAsset 11</title><g id="Layer_2" data-name="Layer 2"><g id="Layer_1-2" data-name="Layer 1"><path class="cls-1" d="M10.75,13.69H3a3,3,0,0,1-3-3V3A3,3,0,0,1,3,0h7.76a3,3,0,0,1,3,3v7.74A3,3,0,0,1,10.75,13.69Z"/><path class="cls-2" d="M6.87,2.68c1.37,0,1.52,0,2.06,0a3.32,3.32,0,0,1,1,.18,1.71,1.71,0,0,1,.6.38,1.6,1.6,0,0,1,.39.6,3.32,3.32,0,0,1,.18,1v2c0,1.37,0,1.51,0,2.05a3.24,3.24,0,0,1-.18.95,1.72,1.72,0,0,1-1,1A3.86,3.86,0,0,1,8.9,11h-2c-1.38,0-1.53,0-2.06,0a3.44,3.44,0,0,1-1-.17,1.6,1.6,0,0,1-.6-.39,1.58,1.58,0,0,1-.38-.6,3.24,3.24,0,0,1-.18-1v-2c0-1.37,0-1.52,0-2.06a3.32,3.32,0,0,1,.18-1,1.58,1.58,0,0,1,.38-.6,1.71,1.71,0,0,1,.6-.38,3.33,3.33,0,0,1,1-.18h2m0-.89c-1.38,0-1.56,0-2.09,0a4.08,4.08,0,0,0-1.23.23,2.13,2.13,0,0,0-.89.6,3.32,3.32,0,0,0-.6.89,4,4,0,0,0-.24,1.22c0,.54,0,.72,0,2.09s0,1.54,0,2.08a4,4,0,0,0,.24,1.22,2.07,2.07,0,0,0,.6.89,2.91,2.91,0,0,0,.89.6,4,4,0,0,0,1.23.24c.53,0,.71,0,2.09,0s1.55,0,2.09,0a4,4,0,0,0,1.22-.24,2.16,2.16,0,0,0,.9-.6,2.94,2.94,0,0,0,.59-.89,4,4,0,0,0,.24-1.22c0-.54,0-.71,0-2.08s0-1.55,0-2.09a4,4,0,0,0-.24-1.22,2.2,2.2,0,0,0-.59-.89,3.37,3.37,0,0,0-.9-.6A4.07,4.07,0,0,0,9,1.82c-.54,0-.72,0-2.09,0Z"/><path class="cls-2" d="M6.87,4.17A2.68,2.68,0,1,0,9.55,6.85,2.67,2.67,0,0,0,6.87,4.17Zm0,4.46A1.79,1.79,0,1,1,8.66,6.85,1.79,1.79,0,0,1,6.87,8.63Z"/><circle class="cls-2" cx="9.55" cy="4.17" r="0.6"/></g></g></svg>