<svg xmlns="http://www.w3.org/2000/svg" xmlns:xlink="http://www.w3.org/1999/xlink" viewBox="0 0 15.53 15.48"><defs><style>.cls-1{fill:url(#linear-gradient);}.cls-2{fill:#fff;}</style><linearGradient id="linear-gradient" x1="7.76" y1="96.86" x2="7.76" y2="78.23" gradientTransform="translate(0 -78)" gradientUnits="userSpaceOnUse"><stop offset="0" stop-color="#3d61ad"/><stop offset="0.28" stop-color="#407bbe"/><stop offset="0.57" stop-color="#4298d3"/><stop offset="0.82" stop-color="#3fade2"/><stop offset="1" stop-color="#3eb3e7"/></linearGradient></defs><title>icon_facebookAsset 10</title><g id="Layer_2" data-name="Layer 2"><g id="Layer_1-2" data-name="Layer 1"><path class="cls-1" d="M15.53,7.74a7.74,7.74,0,0,1-6.87,7.69,6.6,6.6,0,0,1-.9.05,8.1,8.1,0,0,1-1.49-.14,7.74,7.74,0,1,1,9.26-7.6Z"/><path class="cls-2" d="M11,9l-.23.59a.9.9,0,0,1-.85.58H8.66v5.31a6.6,6.6,0,0,1-.9.05,8.1,8.1,0,0,1-1.49-.14V10.12H5.39a.9.9,0,0,1-.91-.89V8.64a.9.9,0,0,1,.91-.9h.88V6a3,3,0,0,1,3-3h.89a1.19,1.19,0,1,1,0,2.38H9.26a.6.6,0,0,0-.6.6V7.74h1.48A.9.9,0,0,1,11,9Z"/></g></g></svg>