<svg xmlns="http://www.w3.org/2000/svg" viewBox="0 0 81.54 38.99"><defs><style>.cls-1{fill:#166322;}.cls-2{fill:#e01b24;}.cls-3{fill:#bb1d2e;}.cls-4{fill:#a4c43f;}.cls-5{fill:#603815;}.cls-6{fill:#9b1523;}.cls-7{fill:#c22a3a;}.cls-8{fill:#ea2a32;}.cls-9{fill:#9cc652;}.cls-10{fill:#fdfcfc;}.cls-11{fill:#c22a39;}.cls-12{fill:#eb2a32;}.cls-13{fill:#f9eaea;}.cls-14{fill:#fcfcfb;}.cls-15{fill:#fcfafa;}.cls-16{fill:#c12939;}.cls-17{fill:#f9f4f4;}.cls-18{font-size:9px;fill:#fff;font-family:Georgia;}</style></defs><title>img_logoAsset 6</title><g id="Layer_2" data-name="Layer 2"><g id="Layer_1-2" data-name="Layer 1"><path class="cls-1" d="M31.14,27.28q-8.2-2.67-16.4-5.34c-.44-.14-.94-.1-1.4-.2a3.72,3.72,0,0,1-.83-.34A2.19,2.19,0,0,1,12,21c-.26-.26-.6-.52-.69-.84s.21-.72.64-.87c.13,0,.32-.21.32-.32,0-.73,0-1.45,0-2.25h-.94c-1.86,0-3.72,0-5.58,0a5,5,0,0,1-3.61-1.43A4.55,4.55,0,0,1,.78,13h25c-.1.28-.16.51-.26.72a5,5,0,0,1-4.71,3c-1.9,0-3.81,0-5.71,0h-.82c0,.86,0,1.61,0,2.36,0,.57.16.79.71.92,5.09,1.28,10.16,2.59,15.24,3.88l2.45.64-1,2.88C31.56,27.4,31.34,27.35,31.14,27.28Zm-18.4-6.85c.06.22.37.38.57.56.17-.19.45-.38.47-.59s-.26-.4-.53-.76C13,20,12.7,20.27,12.74,20.43Z"/><path class="cls-1" d="M61.54,31.28c0,.38,0,.67.49.8a.74.74,0,0,1,.52,1c-.11.47-.44.62-.92.7-.8.13-1.58.31-2.22-.41-.07-.09-.25-.08-.38-.1L46.78,30.93l-5.16-1V26.83l17.87,4.56V28.93c-2.11,0-4.17,0-6.23,0a5.87,5.87,0,0,1-1.51-.15A5.17,5.17,0,0,1,48,25.24H73.1c-.21.43-.34.81-.54,1.14A5.08,5.08,0,0,1,68,28.93c-2.12,0-4.24,0-6.48,0C61.55,29.78,61.56,30.53,61.54,31.28Zm-1,.81c-.22,0-.37.36-.56.56.19.17.38.47.57.48s.41-.27.76-.53C61,32.35,60.74,32.05,60.57,32.09Z"/><path class="cls-1" d="M28.6,36.14A3.07,3.07,0,0,1,31.06,33a2.56,2.56,0,0,0,1.76-2.57c0-.95,0-1.9,0-2.85a4,4,0,0,1,3.67-3.94,3.83,3.83,0,0,1,4,3.45,31.93,31.93,0,0,1,.07,3.25,2.83,2.83,0,0,0,1.91,2.75c1.83.69,2.29,1.37,2.3,3.36H28.53A3.43,3.43,0,0,0,28.6,36.14Zm8.1-7.59A1.31,1.31,0,0,0,38,27.28a1.27,1.27,0,0,0-2.54,0A1.31,1.31,0,0,0,36.7,28.55Z"/><path class="cls-1" d="M36.7,36.94h-8c-.25,0-.7.13-.71.23,0,.3,0,.76.21.9a2.25,2.25,0,0,0,1.24.44c3.61,0,7.23,0,10.84,0,1.33,0,2.66,0,4,0a1.14,1.14,0,0,0,1.25-1.36,1.44,1.44,0,0,0-.72-.2c-2.68,0-5.37,0-8,0Z"/><path class="cls-1" d="M60.57,24.68h12a2.15,2.15,0,0,0,.72,0c.21-.07.36-.29.53-.45a2.5,2.5,0,0,0-.53-.39,1.65,1.65,0,0,0-.59,0H48.22a1.33,1.33,0,0,0-.53,0c-.17.09-.39.28-.39.42s.22.35.39.42a1.66,1.66,0,0,0,.59,0Z"/><path class="cls-1" d="M13.25,12.49H25.87c.31,0,.73,0,.64-.43,0-.18-.44-.39-.67-.39-4.32,0-8.64,0-13,0H.92a1.32,1.32,0,0,0-.53,0,.82.82,0,0,0-.39.41c0,.09.21.31.36.37a1.67,1.67,0,0,0,.59,0Z"/><path class="cls-1" d="M13.25,19.64c-.26.38-.55.63-.51.79s.37.38.57.56c.17-.19.45-.38.47-.59S13.52,20,13.25,19.64Z"/><path class="cls-1" d="M61.34,32.6c-.36-.25-.6-.55-.77-.51s-.37.36-.56.56c.19.17.38.47.57.48S61,32.86,61.34,32.6Z"/><path class="cls-1" d="M35.44,27.27a1.27,1.27,0,1,0,2.54,0,1.27,1.27,0,0,0-2.54,0Z"/><path class="cls-2" d="M6,38.08a7.56,7.56,0,0,1-3.41-3.92,7.52,7.52,0,0,1,.2-6.39,3.67,3.67,0,0,1,2.71-2.14,4.36,4.36,0,0,1,.51,0s.06,0,.07,0c.11.47.54.68.84,1a3.7,3.7,0,0,0,3.06,1.41A9.68,9.68,0,0,0,12,27.94a1.74,1.74,0,0,1,1.93,1,4.93,4.93,0,0,1,.22,2.66,8.83,8.83,0,0,1-1,3.11l-.1.17a6.49,6.49,0,0,1-3.25,2.95A5.41,5.41,0,0,1,6,38.08Z"/><path class="cls-3" d="M6,38.08a7.22,7.22,0,0,0,3,0,6.31,6.31,0,0,0,3.88-3,1.33,1.33,0,0,1,.14-.19.42.42,0,0,1,.12.44c-.19.38.12.42.34.51a.48.48,0,0,0,.65-.22.81.81,0,0,0-.26-.93c-.1-.06-.17,0-.25,0a.45.45,0,0,1-.52.07,12.78,12.78,0,0,0,.89-2.47,5.34,5.34,0,0,0-.17-3.42A1.65,1.65,0,0,0,12,28a6.89,6.89,0,0,1-4.16-.37,2.36,2.36,0,0,1-1.09-1,1.23,1.23,0,0,1-.29-.76c0-.13,0-.29.21-.21a3.88,3.88,0,0,1,1.5.48l.68.32a1.39,1.39,0,0,0,.9.91,1,1,0,0,0,1.08-.32,3.6,3.6,0,0,0,.49-.67,5.27,5.27,0,0,1,2.33-.8,3.38,3.38,0,0,1,3,1.37A6.46,6.46,0,0,1,18,31.48a4.68,4.68,0,0,0-.83-.16c-.17,0-.36.06-.27.23s0,.44-.21.58a.55.55,0,0,0-.15.19,1.12,1.12,0,0,1-.32.33c-.06,0-.14.05-.17.11-.2.46-.72.6-1,1a.47.47,0,0,1-.46.19c-.3,0-.24.12-.15.28s.23.22.39.35c0-.18-.17-.36,0-.45s.3.09.41.2a.38.38,0,0,1,.11.29,8,8,0,0,1-1.48,2.33l-.46.56a8.32,8.32,0,0,0,2.89-3.18.45.45,0,0,0,0-.59c-.23-.17-.25-.33,0-.45a2.37,2.37,0,0,0,.33-.22l.11,0c.12,0,.25,0,.27-.19.05-.56.49-.81.94-1a7.88,7.88,0,0,1-4.72,6.7,7.61,7.61,0,0,1-1.24.44,1.57,1.57,0,0,1-.91,0,3.41,3.41,0,0,0-2.21,0,1.72,1.72,0,0,1-1,0A6.58,6.58,0,0,1,6,38.08Z"/><path class="cls-4" d="M8.69,23.67a10.75,10.75,0,0,0-3.22-2.19,18.8,18.8,0,0,1,3.3,3.91,6.1,6.1,0,0,1-5.44-3.21,2.38,2.38,0,0,1-.21-2.31.45.45,0,0,1,.45-.32,5.37,5.37,0,0,1,5,2.91,5.56,5.56,0,0,1,.32.8C9,23.5,9,23.66,8.69,23.67Z"/><path class="cls-5" d="M9.58,26.56a5.16,5.16,0,0,1,1-3.66c.26-.35.54-.41.81-.18a.56.56,0,0,1,.06.9,5.59,5.59,0,0,0-1.4,2.77,1.76,1.76,0,0,0,0,.23v0a.67.67,0,0,1-.17.63.15.15,0,0,1-.21,0A.63.63,0,0,1,9.58,26.56Z"/><path class="cls-6" d="M9.58,26.56c.07.23,0,.63.25.65s.05-.43.26-.59a5.3,5.3,0,0,0,1.25-.23,1.74,1.74,0,0,1-.93,1.12A1.29,1.29,0,0,1,9.07,27c-.11-.15-.34-.28-.2-.54C9.11,26.48,9.33,26.62,9.58,26.56Z"/><path class="cls-7" d="M16.44,32.29a.37.37,0,0,1,.17-.25c.23-.12.43-.22.1-.47-.08-.06,0-.18.08-.23s.18-.27.36-.14.24.17.36,0,.17-.05.2.05.11.24.27.25l0,.32a1.22,1.22,0,0,1-.5.43.55.55,0,0,0-.34.55c.08.42-.15.33-.37.3v0C16.93,32.54,16.93,32.54,16.44,32.29Z"/><path class="cls-8" d="M6.69,25.67c-.17,0-.11.12-.1.23a4.7,4.7,0,0,0,.18.74,1.42,1.42,0,0,1-.81-1A1.4,1.4,0,0,1,6.69,25.67Z"/><path class="cls-9" d="M8.69,23.67a.39.39,0,0,0,.25-.41,2.09,2.09,0,0,1,.27,1Z"/><path class="cls-10" d="M4.31,35.1A6.08,6.08,0,0,1,3.18,32a6.28,6.28,0,0,1,.41-2.84A2.2,2.2,0,0,1,4,28.4a.45.45,0,0,1,.61-.11c.23.16.16.41.06.62s-.26.35-.35.54a6.27,6.27,0,0,0-.45,3.77,11.79,11.79,0,0,0,.41,1.55A.42.42,0,0,1,4.31,35.1Z"/><path class="cls-11" d="M13.05,34.77c.2-.08.46,0,.58-.27a.13.13,0,0,1,.18,0,1.25,1.25,0,0,1,.45.9.6.6,0,0,1-.52.58c-.34.07-.57-.2-.85-.29,0,0,0-.11,0-.14.2-.2.09-.45.09-.67Z"/><path class="cls-12" d="M4.86,27.84c-.2-.22-.14-.43-.11-.71s.15-.54.56-.65.47-.16.75.38a.61.61,0,0,1-.3.84,2.24,2.24,0,0,1-.46.14c-.08-.1,0-.32-.21-.32S5,27.74,4.86,27.84Z"/><path class="cls-13" d="M4.86,27.84c-.05-.16-.09-.32.06-.44a.27.27,0,0,1,.33,0c.17.13.11.28,0,.43A.41.41,0,0,1,4.86,27.84Z"/><path class="cls-14" d="M16.35,33.66a.47.47,0,0,1,.11.61,8.92,8.92,0,0,1-3,3.29.35.35,0,0,1-.31.07,14.27,14.27,0,0,0,2.11-3c.07-.17.11-.35.18-.52C15.72,33.54,15.78,33.5,16.35,33.66Z"/><path class="cls-15" d="M16.23,29.17a2.57,2.57,0,0,0-1.35-2.1c-.81-.48-1.65-.13-2.53-.06a2.47,2.47,0,0,1,3.24-.09A2.1,2.1,0,0,1,16.23,29.17Z"/><path class="cls-16" d="M16.35,33.66a.52.52,0,0,0-.74.38,1.21,1.21,0,0,1-.31.55c0-.05,0-.12-.05-.14s-.22-.38-.39-.26,0,.26.12.38,0,.09,0,.14-.11.06-.14,0c-.21-.21-.55-.29-.61-.64,0-.17.07-.38.18-.32.44.26.56-.17.77-.34s.21-.26.41-.28.17-.14.21-.26.15-.32.37-.29a3.94,3.94,0,0,0,.5.5,1,1,0,0,1-.52.34C16.13,33.6,16.34,33.54,16.35,33.66Z"/><path class="cls-17" d="M16.68,33.1a.48.48,0,0,1-.5-.5l.26-.31a.46.46,0,0,1,.53.25c.1.24,0,.4-.22.54A.08.08,0,0,0,16.68,33.1Z"/><text class="cls-18" transform="translate(0.25 7.62)">LIFE</text><text class="cls-18" transform="translate(28.43 16.29)">ON</text><text class="cls-18" transform="translate(47.52 18.54)">SCALE</text></g></g></svg>